<?xml version="1.0" encoding="UTF-8"?><svg id="b" xmlns="http://www.w3.org/2000/svg" width="85.28883" height="96.41255" viewBox="0 0 85.28883 96.41255"><defs><style>.d{fill:#1d1d1b;}</style></defs><g id="c"><path class="d" d="M68.22218,0H15.24503C6.82595,0,0,6.82409,0,15.24316v65.92436c0,8.41906,6.82595,15.24503,15.24503,15.24503,4.20955,0,8.01984-1.70743,10.77873-4.4663,2.75887-2.75888,4.46442-6.56921,4.46442-10.77873v-8.44718c0-8.41906,6.82597-15.24316,15.24317-15.24316h22.49083c8.41905,0,15.24503-6.82596,15.24503-15.24503V15.24316c0-8.41907-6.82597-15.24316-15.24503-15.24316ZM65.72381,33.56006c0,3.20306-2.59581,5.79889-5.79887,5.79889H23.54227c-3.20306,0-5.7989-2.59582-5.7989-5.79889v-9.64482c0-3.20119,2.59583-5.79701,5.7989-5.79701h36.38266c3.20306,0,5.79887,2.59582,5.79887,5.79701v9.64482Z"/><path class="d" d="M79.04419,96.41189h-12.0716c-4.68411,0-9.05933-2.33733-11.66346-6.23084l-10.03792-15.00804c-2.77052-4.14229.19851-9.69998,5.18192-9.69998h12.0716c4.68411,0,9.05933,2.33733,11.66346,6.23084l10.03792,15.00804c2.77052,4.14229-.19851,9.69998-5.18192,9.69998Z"/></g></svg>